#!OML:ASF E:\Style4\Style4.ASF
:FULLY-SPECIFIED
:DEGREES
2242
root 0.531911 16.4353 -0.163188 4.31208 6.09765 4.9084
lowerback 13.8541 3.99881 -1.48482
upperback 4.60081 5.04346 -0.972186
thorax -2.9297 2.50565 -0.99219
lowerneck -0.406554 -1.33317 -4.21251
upperneck 9.70551 -1.79508 2.17354
head 3.26369 -0.951531 1.3921
rclavicle 1.92821e-014 7.95139e-015
rhumerus -33.786 15.2328 -62.7817
rradius 137.586
rwrist -73.6101
rhand 49.8936 -2.62767
rfingers 7.12502
rthumb 69.8818 1.26384
lclavicle 1.92821e-014 7.95139e-015
lhumerus -21.0467 -9.12336 58.8527
lradius 139.998
lwrist 74.5242
lhand 35.3759 48.8008
lfingers 7.12502
lthumb 58.4642 64.0982
rfemur -30.3253 -9.9126 12.2015
rtibia 62.2792
rfoot -30.1199 -21.0334
rtoes -15.1646
lfemur -30.2515 -2.53624 -26.4614
ltibia 57.9187
lfoot -30.5911 10.9037
ltoes -15.121
2243
root 0.532837 16.4318 -0.165561 4.32039 6.03391 4.87832
lowerback 13.8299 3.99005 -1.46806
upperback 4.60155 5.03493 -0.965766
thorax -2.91519 2.50144 -0.991583
lowerneck -0.391869 -1.39984 -4.29144
upperneck 9.74346 -1.88786 2.23901
head 3.28019 -0.998293 1.42527
rclavicle 2.56432e-014 1.27222e-014
rhumerus -33.8075 15.374 -62.7131
rradius 137.567
rwrist -73.5498
rhand 49.9015 -2.67572
rfingers 7.12502
rthumb 69.887 1.23209
lclavicle 2.56432e-014 1.27222e-014
lhumerus -21.0415 -9.38322 58.7546
lradius 139.853
lwrist 74.3193
lhand 35.9444 48.4994
lfingers 7.12502
lthumb 58.9568 63.3301
rfemur -30.395 -9.87494 12.2373
rtibia 62.3076
rfoot -30.0782 -21.0872
rtoes -15.2906
lfemur -30.3076 -2.50347 -26.4318
ltibia 58.0027
lfoot -30.646 10.8456
ltoes -14.7483
2244
root 0.53452 16.4291 -0.167792 4.26891 5.97181 4.77133
lowerback 13.8728 3.97203 -1.39787
upperback 4.60754 5.02086 -0.9244
thorax -2.9299 2.49426 -0.988187
lowerneck -0.372275 -1.50323 -4.37077
upperneck 9.7694 -2.03023 2.30689
head 3.2938 -1.0695 1.45776
rclavicle 1.5704e-014 1.03368e-014
rhumerus -33.8365 15.5682 -62.6392
rradius 137.582
rwrist -73.493
rhand 50.6759 -2.42732
rfingers 7.12502
rthumb 70.3877 3.11602
lclavicle 1.5704e-014 1.03368e-014
lhumerus -21.0507 -9.55215 58.6439
lradius 139.792
lwrist 74.1462
lhand 36.4253 48.4512
lfingers 7.12502
lthumb 59.3717 62.8746
rfemur -30.3768 -9.8264 12.3454
rtibia 62.3229
rfoot -29.9886 -21.1418
rtoes -15.5569
lfemur -30.3136 -2.44997 -26.3238
ltibia 58.0863
lfoot -30.7157 10.9111
ltoes -15.0114
2245
root 0.537294 16.4266 -0.171133 4.13373 5.89785 4.64288
lowerback 13.8984 3.9901 -1.37169
upperback 4.70693 5.05248 -0.822331
thorax -2.84647 2.50954 -0.89914
lowerneck -0.414886 -1.70118 -4.46156
upperneck 9.76712 -2.29516 2.36427
head 3.31466 -1.20165 1.48466
rclavicle -3.51849e-014 1.59028e-015
rhumerus -33.7066 15.6895 -62.3474
rradius 137.559
rwrist -73.5602
rhand 51.5293 -2.12634
rfingers 7.12502
rthumb 70.9191 5.31914
lclavicle -3.51849e-014 1.59028e-015
lhumerus -20.9243 -9.6209 58.5831
lradius 139.76
lwrist 74.0078
lhand 36.795 48.5765
lfingers 7.12502
lthumb 59.6895 62.6787
rfemur -30.2801 -9.77749 12.464
rtibia 62.3433
rfoot -29.9362 -21.1805
rtoes -15.8447
lfemur -30.239 -2.35313 -26.1986
ltibia 58.154
lfoot -30.7781 10.9882
ltoes -15.4333
2246
root 0.538598 16.423 -0.173301 4.09541 5.8304 4.69601
lowerback 13.722 4.01303 -1.62512
upperback 4.87123 5.05982 -0.720056
thorax -2.61019 2.51181 -0.633125
lowerneck -0.523529 -1.9177 -4.64683
upperneck 9.73034 -2.58285 2.47057
head 3.34083 -1.34633 1.54342
rclavicle 4.57205e-015 -5.56597e-015
rhumerus -33.403 15.8345 -61.9487
rradius 137.503
rwrist -73.5874
rhand 50.7998 -2.29723
rfingers 7.12502
rthumb 70.4662 3.51585
lclavicle 4.57205e-015 -5.56597e-015
lhumerus -20.6745 -9.52338 58.5505
lradius 139.705
lwrist 73.949
lhand 37.0289 48.8844
lfingers 7.12502
lthumb 59.89 62.7797
rfemur -30.2809 -9.76584 12.3899
rtibia 62.384
rfoot -29.9434 -21.1778
rtoes -15.8139
lfemur -30.2132 -2.29906 -26.2731
ltibia 58.1908
lfoot -30.7591 10.9799
ltoes -15.308
2247
root 0.536857 16.4215 -0.174197 4.15326 5.78158 4.80574
lowerback 13.6365 4.00132 -1.84467
upperback 4.89519 5.01791 -0.739777
thorax -2.5555 2.48991 -0.517949
lowerneck -0.3977 -2.12505 -4.81203
upperneck 9.58534 -2.88259 2.74233
head 3.29034 -1.49131 1.65412
rclavicle 7.95139e-016 1.90833e-014
rhumerus -33.3379 16.0659 -61.8076
rradius 137.506
rwrist -73.527
rhand 49.9605 -2.34798
rfingers 7.12502
rthumb 69.9258 1.68151
lclavicle 7.95139e-016 1.90833e-014
lhumerus -20.5529 -9.48137 58.3413
lradius 139.711
lwrist 73.958
lhand 37.4672 49.3594
lfingers 7.12502
lthumb 60.2645 62.859
rfemur -30.3896 -9.7565 12.2721
rtibia 62.4405
rfoot -29.9774 -21.0991
rtoes -15.5946
lfemur -30.2731 -2.27934 -26.3951
ltibia 58.2128
lfoot -30.7281 10.9582
ltoes -15.0966
2248
root 0.536135 16.4207 -0.173339 4.15081 5.77015 4.83342
lowerback 13.7737 3.95932 -1.80093
upperback 4.81011 4.95848 -0.860788
thorax -2.7034 2.46149 -0.672043
lowerneck -0.104123 -2.43405 -5.00056
upperneck 9.37417 -3.33817 3.18363
head 3.20005 -1.70992 1.82236
rclavicle -9.74045e-015 1.74931e-014
rhumerus -33.5572 16.2224 -61.8871
rradius 137.544
rwrist -73.3819
rhand 50.0991 -2.25721
rfingers 7.12502
rthumb 70.0164 2.06007
lclavicle -9.74045e-015 1.74931e-014
lhumerus -20.5295 -9.64912 57.9779
lradius 139.753
lwrist 73.8915
lhand 37.9553 49.6579
lfingers 7.12502
lthumb 60.6797 62.7043
rfemur -30.4035 -9.76217 12.2386
rtibia 62.4806
rfoot -29.9953 -21.0566
rtoes -15.5308
lfemur -30.2798 -2.25917 -26.4255
ltibia 58.2482
lfoot -30.8087 11.0286
ltoes -15.4183
